<?xml version="1.0" encoding="UTF-8" standalone="no"?>
<!DOCTYPE svg PUBLIC "-//W3C//DTD SVG 1.1//EN"
 "http://www.w3.org/Graphics/SVG/1.1/DTD/svg11.dtd">
<!-- Generated by graphviz version 2.43.0 (0)
 -->
<!-- Title: pastafarianism Pages: 1 -->
<svg width="560pt" height="260pt"
 viewBox="0.00 0.00 559.93 260.00" xmlns="http://www.w3.org/2000/svg" xmlns:xlink="http://www.w3.org/1999/xlink">
<g id="graph0" class="graph" transform="scale(1 1) rotate(0) translate(4 256)">
<title>pastafarianism</title>
<polygon fill="white" stroke="transparent" points="-4,4 -4,-256 555.93,-256 555.93,4 -4,4"/>
<!-- Sequence -->
<g id="node1" class="node">
<title>Sequence</title>
<polygon fill="orange" stroke="black" points="277.43,-252 204.43,-252 204.43,-216 277.43,-216 277.43,-252"/>
<text text-anchor="middle" x="240.93" y="-231.8" font-family="Times,serif" font-size="9.00">m Sequence</text>
</g>
<!-- Fallback -->
<g id="node2" class="node">
<title>Fallback</title>
<polygon fill="cyan" stroke="black" points="216.92,-154.54 216.92,-169.46 196.42,-180 167.44,-180 146.94,-169.46 146.94,-154.54 167.44,-144 196.42,-144 216.92,-154.54"/>
<text text-anchor="middle" x="181.93" y="-159.8" font-family="Times,serif" font-size="9.00">Fallback</text>
</g>
<!-- Sequence&#45;&gt;Fallback -->
<g id="edge1" class="edge">
<title>Sequence&#45;&gt;Fallback</title>
<path fill="none" stroke="black" d="M226.35,-215.7C219.27,-207.3 210.65,-197.07 202.89,-187.86"/>
<polygon fill="black" stroke="black" points="205.47,-185.49 196.35,-180.1 200.12,-190.01 205.47,-185.49"/>
</g>
<!-- Fallback  -->
<g id="node7" class="node">
<title>Fallback </title>
<polygon fill="cyan" stroke="black" points="336.67,-154.54 336.67,-169.46 315.15,-180 284.71,-180 263.19,-169.46 263.19,-154.54 284.71,-144 315.15,-144 336.67,-154.54"/>
<text text-anchor="middle" x="299.93" y="-159.8" font-family="Times,serif" font-size="9.00">Fallback </text>
</g>
<!-- Sequence&#45;&gt;Fallback  -->
<g id="edge6" class="edge">
<title>Sequence&#45;&gt;Fallback </title>
<path fill="none" stroke="black" d="M255.52,-215.7C262.59,-207.3 271.21,-197.07 278.98,-187.86"/>
<polygon fill="black" stroke="black" points="281.75,-190.01 285.51,-180.1 276.39,-185.49 281.75,-190.01"/>
</g>
<!-- carried weight &lt; 5? -->
<g id="node3" class="node">
<title>carried weight &lt; 5?</title>
<ellipse fill="lightgray" stroke="black" cx="62.93" cy="-90" rx="62.86" ry="18"/>
<text text-anchor="middle" x="62.93" y="-87.8" font-family="Times,serif" font-size="9.00">carried weight &lt; 5?</text>
</g>
<!-- Fallback&#45;&gt;carried weight &lt; 5? -->
<g id="edge2" class="edge">
<title>Fallback&#45;&gt;carried weight &lt; 5?</title>
<path fill="none" stroke="black" d="M159.55,-147.83C142.27,-137.67 118.03,-123.41 98.15,-111.72"/>
<polygon fill="black" stroke="black" points="99.76,-108.61 89.37,-106.55 96.21,-114.64 99.76,-108.61"/>
</g>
<!-- Sequence  -->
<g id="node4" class="node">
<title>Sequence </title>
<polygon fill="orange" stroke="black" points="219.93,-108 143.93,-108 143.93,-72 219.93,-72 219.93,-108"/>
<text text-anchor="middle" x="181.93" y="-87.8" font-family="Times,serif" font-size="9.00">m Sequence </text>
</g>
<!-- Fallback&#45;&gt;Sequence  -->
<g id="edge3" class="edge">
<title>Fallback&#45;&gt;Sequence </title>
<path fill="none" stroke="black" d="M181.93,-143.7C181.93,-135.98 181.93,-126.71 181.93,-118.11"/>
<polygon fill="black" stroke="black" points="185.43,-118.1 181.93,-108.1 178.43,-118.1 185.43,-118.1"/>
</g>
<!-- move to CHARGE1 -->
<g id="node5" class="node">
<title>move to CHARGE1</title>
<ellipse fill="lightgray" stroke="black" cx="97.93" cy="-18" rx="60.09" ry="18"/>
<text text-anchor="middle" x="97.93" y="-15.8" font-family="Times,serif" font-size="9.00">move to CHARGE1</text>
</g>
<!-- Sequence &#45;&gt;move to CHARGE1 -->
<g id="edge4" class="edge">
<title>Sequence &#45;&gt;move to CHARGE1</title>
<path fill="none" stroke="black" d="M161.17,-71.7C150.27,-62.62 136.79,-51.38 125.08,-41.62"/>
<polygon fill="black" stroke="black" points="127.23,-38.86 117.3,-35.14 122.75,-44.24 127.23,-38.86"/>
</g>
<!-- charge! -->
<g id="node6" class="node">
<title>charge!</title>
<ellipse fill="lightgray" stroke="black" cx="206.93" cy="-18" rx="30.7" ry="18"/>
<text text-anchor="middle" x="206.93" y="-15.8" font-family="Times,serif" font-size="9.00">charge!</text>
</g>
<!-- Sequence &#45;&gt;charge! -->
<g id="edge5" class="edge">
<title>Sequence &#45;&gt;charge!</title>
<path fill="none" stroke="black" d="M188.11,-71.7C190.93,-63.81 194.32,-54.3 197.45,-45.55"/>
<polygon fill="black" stroke="black" points="200.76,-46.7 200.82,-36.1 194.16,-44.34 200.76,-46.7"/>
</g>
<!-- conveyor light &lt; 1? -->
<g id="node8" class="node">
<title>conveyor light &lt; 1?</title>
<ellipse fill="lightgray" stroke="black" cx="299.93" cy="-90" rx="61.55" ry="18"/>
<text text-anchor="middle" x="299.93" y="-87.8" font-family="Times,serif" font-size="9.00">conveyor light &lt; 1?</text>
</g>
<!-- Fallback &#45;&gt;conveyor light &lt; 1? -->
<g id="edge7" class="edge">
<title>Fallback &#45;&gt;conveyor light &lt; 1?</title>
<path fill="none" stroke="black" d="M299.93,-143.7C299.93,-135.98 299.93,-126.71 299.93,-118.11"/>
<polygon fill="black" stroke="black" points="303.43,-118.1 299.93,-108.1 296.43,-118.1 303.43,-118.1"/>
</g>
<!-- Sequence &#160; -->
<g id="node9" class="node">
<title>Sequence &#160;</title>
<polygon fill="orange" stroke="black" points="458.43,-108 379.43,-108 379.43,-72 458.43,-72 458.43,-108"/>
<text text-anchor="middle" x="418.93" y="-87.8" font-family="Times,serif" font-size="9.00">m Sequence &#160;</text>
</g>
<!-- Fallback &#45;&gt;Sequence &#160; -->
<g id="edge8" class="edge">
<title>Fallback &#45;&gt;Sequence &#160;</title>
<path fill="none" stroke="black" d="M322.88,-147.5C339.32,-137.83 361.84,-124.58 380.94,-113.35"/>
<polygon fill="black" stroke="black" points="382.88,-116.27 389.73,-108.18 379.33,-110.23 382.88,-116.27"/>
</g>
<!-- move to CONVEYOR_LIGHT! -->
<g id="node10" class="node">
<title>move to CONVEYOR_LIGHT!</title>
<ellipse fill="lightgray" stroke="black" cx="392.93" cy="-18" rx="87.36" ry="18"/>
<text text-anchor="middle" x="392.93" y="-15.8" font-family="Times,serif" font-size="9.00">move to CONVEYOR_LIGHT!</text>
</g>
<!-- Sequence &#160;&#45;&gt;move to CONVEYOR_LIGHT! -->
<g id="edge9" class="edge">
<title>Sequence &#160;&#45;&gt;move to CONVEYOR_LIGHT!</title>
<path fill="none" stroke="black" d="M412.5,-71.7C409.58,-63.81 406.04,-54.3 402.79,-45.55"/>
<polygon fill="black" stroke="black" points="406.05,-44.26 399.28,-36.1 399.49,-46.7 406.05,-44.26"/>
</g>
<!-- idle! -->
<g id="node11" class="node">
<title>idle!</title>
<ellipse fill="lightgray" stroke="black" cx="524.93" cy="-18" rx="27" ry="18"/>
<text text-anchor="middle" x="524.93" y="-15.8" font-family="Times,serif" font-size="9.00">idle!</text>
</g>
<!-- Sequence &#160;&#45;&gt;idle! -->
<g id="edge10" class="edge">
<title>Sequence &#160;&#45;&gt;idle!</title>
<path fill="none" stroke="black" d="M444.86,-71.88C460.89,-61.29 481.44,-47.72 497.71,-36.98"/>
<polygon fill="black" stroke="black" points="499.83,-39.77 506.25,-31.34 495.97,-33.93 499.83,-39.77"/>
</g>
</g>
</svg>
